<svg xmlns="http://www.w3.org/2000/svg" viewBox="0 0 128 128" fill="none">
  <rect width="128" height="128" rx="28" fill="url(#g128)"/>
  <g fill="#fff" transform="translate(16 13) scale(2.668)">
    <path d="M19 6h-2c0-2.76-2.24-5-5-5S7 3.24 7 6H5c-1.1 0-2 .9-2 2v12c0 1.1.9 2 2 2h14c1.1 0 2-.9 2-2V8c0-1.1-.9-2-2-2zm-7-3c1.66 0 3 1.34 3 3H9c0-1.66 1.34-3 3-3z"/>
  </g>
  <defs>
    <linearGradient id="g128" x1="24" y1="16" x2="104" y2="112"><stop stop-color="#0d9488"/><stop offset="1" stop-color="#059669"/></linearGradient>
  </defs>
</svg>
