<svg xmlns="http://www.w3.org/2000/svg" viewBox="0 0 48 48" fill="none">
  <rect width="48" height="48" rx="12" fill="url(#g48)"/>
  <g fill="#fff" transform="translate(6 4.9) scale(1)">
    <path d="M19 6h-2c0-2.76-2.24-5-5-5S7 3.24 7 6H5c-1.1 0-2 .9-2 2v12c0 1.1.9 2 2 2h14c1.1 0 2-.9 2-2V8c0-1.1-.9-2-2-2zm-7-3c1.66 0 3 1.34 3 3H9c0-1.66 1.34-3 3-3z"/>
  </g>
  <defs>
    <linearGradient id="g48" x1="8" y1="6" x2="40" y2="42"><stop stop-color="#0d9488"/><stop offset="1" stop-color="#059669"/></linearGradient>
  </defs>
</svg>
